<?xml version="1.0" encoding="UTF-8" standalone="no"?>
<!-- Created with Inkscape (http://www.inkscape.org/) -->

<svg
   version="1.1"
   id="svg127"
   width="805.54053"
   height="259.99902"
   viewBox="0 0 805.54053 259.99902"
   xmlns="http://www.w3.org/2000/svg"
   xmlns:svg="http://www.w3.org/2000/svg">
  <defs
     id="defs131" />
  <g
     id="g133"
     transform="translate(-275,-300)">
    <path
       style="fill:#008cf2;fill-opacity:1"
       d="m 405.357,337.18837 -2.143,-0.86481 -1.607,-2.29431 -1.607,-2.29431 v -12.82295 -12.82295 l 2.38827,-2.38827 2.38827,-2.38827 3.44776,-0.64681 3.44775,-0.6468 13.64411,0.33053 13.6441,0.33053 2.76987,2.77455 2.76987,2.77455 v 13.0584 13.0584 l -3.26578,2.91705 -3.26577,2.91705 -15.23423,-0.0634 -15.23422,-0.0634 -2.143,-0.86481 z"
       id="path7010" />
    <path
       style="fill:#003589;fill-opacity:1"
       d="m 921.03023,365.90075 -2.46978,-1.24973 -1.27352,-2.48553 -1.27351,-2.48554 -1.06052,-4.30667 -1.06051,-4.30668 -3.47007,-3.84095 -3.47007,-3.84096 -6.72613,-2.68306 -6.72612,-2.68307 -2.48554,-1.19953 -2.48553,-1.19953 -1.24973,-2.46978 -1.24972,-2.46977 -0.0132,-10.5 -0.0132,-10.5 1.74844,-3.48928 1.74845,-3.48928 2.73259,-0.94764 2.73259,-0.94764 6.76741,1.3384 6.76741,1.33839 6.81478,2.76572 6.81478,2.76573 5.53589,3.3328 5.53589,3.3328 5.90818,6.29605 5.90818,6.29604 3.00206,5.94705 3.00206,5.94705 1.48909,5.717 1.48909,5.71701 v 4.35564 4.35564 l -1.08049,2.01892 -1.08049,2.01892 -3.38739,1.41534 -3.38736,1.41534 -10.78212,-0.0147 -10.78212,-0.0147 z"
       id="path7008" />
    <path
       style="fill:#002a6c;fill-opacity:1"
       d="m 737.98806,489.09702 -2.51194,-0.92503 -1.48806,-2.24602 -1.48806,-2.24602 -0.5,-57.9755 -0.5,-57.97549 -22.14766,28.47549 -22.14766,28.4755 -2.52323,2.35 -2.52324,2.35 h -3.48921 -3.4892 l -1.57466,-0.88122 -1.57465,-0.88122 L 629.01524,370.70012 586,313.78273 v -3.87831 -3.87832 l 2.9969,-2.9969 2.9969,-2.9969 14.40131,0.32383 14.4013,0.32382 2.23147,2 2.23146,2 26.02162,34.5 26.02162,34.5 0.63412,0.73541 0.63413,0.73542 26.46458,-35.959 26.46459,-35.95899 3.15113,-1.52642 3.15113,-1.52642 12.34887,0.0147 12.34887,0.0147 2.5,1.24917 2.5,1.24917 1.74845,3.48609 1.74844,3.48609 0.002,85.28212 0.002,85.28212 -1.46401,3.50387 -1.46401,3.50387 -3.50387,1.46401 -3.50387,1.46401 -10.28212,-0.0789 -10.28212,-0.0789 -2.51194,-0.92504 z"
       id="path7006" />
    <path
       style="fill:#003589;fill-opacity:1"
       d="m 592,489.51382 -1.5,-0.58843 -2.25,-2.04703 -2.25,-2.04704 0.0318,-27.57568 0.0318,-27.57569 1.21819,-1.58666 1.2182,-1.58665 2.18426,-1.16335 2.18426,-1.16334 h 11.51869 11.51868 l 2.43719,1.11046 2.43719,1.11045 1.35987,2.54249 1.35986,2.54249 v 26.32488 26.32487 l -2.76992,2.77218 -2.76992,2.77218 -12.23008,0.21115 -12.23007,0.21115 z"
       id="path7004" />
    <path
       style="fill:#002a6c;fill-opacity:1"
       d="m 889,489.71088 -2.5,-2.69594 v -12.8958 -12.8958 l 2.5,-2.48838 2.5,-2.48839 7.48341,-1.56866 7.48341,-1.56865 5.01659,-2.82827 5.01659,-2.82827 1.94231,-3.30805 1.94231,-3.30804 v -4.7871 -4.7871 l -1.94231,-2.15156 -1.94231,-2.15156 -6.52481,-3.28885 -6.52481,-3.28885 -8.47519,-2.57579 -8.47519,-2.57579 -13,-3.07777 -13,-3.07777 -7,-2.05447 -7,-2.05447 -8,-3.59149 -8,-3.59148 -5.57526,-3.71991 -5.57526,-3.71992 -5.10414,-5.58474 -5.10414,-5.58474 -2.21634,-5.74666 -2.21634,-5.74666 -0.44974,-8.5 -0.44973,-8.5 1.61517,-6.89697 1.61517,-6.89698 3.2303,-6.08741 3.23031,-6.08742 6,-6.10773 6,-6.10772 8.5,-4.14795 8.5,-4.14794 5.62285,-1.4221 5.62284,-1.42209 5.42508,-0.67782 5.42508,-0.67782 3.20208,2.99118 3.20207,2.99119 v 13.0099 13.00989 l -3.07739,2.58945 -3.07738,2.58945 -3.8202,0.61088 -3.82019,0.61087 -5.25307,2.63857 -5.25307,2.63857 -1.99852,2.68828 -1.99852,2.68827 -0.70078,4.61763 -0.70078,4.61762 1.8984,2.41342 1.89839,2.41341 7.20155,3.53459 7.20156,3.53459 23.23482,5.96627 23.23483,5.96626 7.76517,2.5985 7.76518,2.5985 7,3.54532 7,3.54532 4.75713,3.47641 4.75712,3.47641 3.37473,4.1596 3.37472,4.1596 2.49377,5 2.49377,5 1.12438,5.29922 1.12438,5.29922 -0.0174,5.20078 -0.0174,5.20078 -1.41443,6.67367 -1.41444,6.67367 -2.78726,5.82633 -2.78726,5.82633 -7.03094,7.01366 -7.03094,7.01366 -7.5,3.68022 -7.5,3.68023 -7.5,2.08495 -7.5,2.08496 -7.5,0.5846 -7.5,0.58459 -2.5,-2.69594 z"
       id="path7002" />
    <path
       style="fill:#003589;fill-opacity:1"
       d="m 852.46075,490.19304 -8.03926,-1.81701 -7.48836,-3.14334 -7.48836,-3.14334 -6.78621,-5.08214 -6.7862,-5.08213 -3.82361,-5.12257 -3.8236,-5.12256 -2.2359,-4.4519 -2.2359,-4.45189 -1.90974,-5.54811 -1.90974,-5.5481 -0.59625,-7.0439 -0.59625,-7.0439 2.54273,-2.9561 2.54273,-2.9561 h 14.00602 14.00602 l 2.51109,2.35905 2.51109,2.35904 0.66893,4.14096 0.66893,4.14095 1.76589,4.07271 1.76589,4.07271 4.38466,3.57065 4.38465,3.57064 8,2.73491 8,2.73491 2.25,2.4275 2.25,2.4275 v 12.79821 12.79821 l -2.45225,2.64603 -2.45225,2.64602 h -1.46596 -1.46597 l -1.33178,0.41505 -1.33179,0.41504 z"
       id="path7000" />
    <path
       style="fill:#008cf2;fill-opacity:1"
       d="M 462.92308,489.25687 460,486.3338 v -89.02987 -89.02987 l 1.13856,-2.49887 1.13855,-2.49886 3.32913,-1.57977 3.32912,-1.57977 42.01045,0.28158 42.01044,0.28158 2.77187,2.77044 2.77188,2.77045 0.34691,10.6844 0.34692,10.6844 -1.13531,3.78933 -1.13531,3.78933 -2.91195,1.50583 -2.91194,1.50582 H 524.54966 498 l -0.0318,74.25 -0.0318,74.25 -1.21819,1.58666 -1.2182,1.58665 -2.18426,1.16335 -2.18426,1.16334 h -12.64266 -12.64267 l -2.92307,-2.92308 z"
       id="path6998" />
    <text
       xml:space="preserve"
       style="font-style:normal;font-variant:normal;font-weight:normal;font-stretch:normal;font-size:44.2668px;font-family:'Andale Mono';-inkscape-font-specification:'Andale Mono, Normal';font-variant-ligatures:normal;font-variant-caps:normal;font-variant-numeric:normal;font-variant-east-asian:normal;fill:#002a6c;fill-opacity:1;stroke-width:3.68891"
       x="257.78284"
       y="590.52289"
       id="text9403"
       transform="scale(1.0555491,0.94737422)"><tspan
         id="tspan9401"
         x="257.78284"
         y="590.52289"
         style="font-style:normal;font-variant:normal;font-weight:normal;font-stretch:normal;font-size:44.2668px;font-family:'Andale Mono';-inkscape-font-specification:'Andale Mono, Normal';font-variant-ligatures:normal;font-variant-caps:normal;font-variant-numeric:normal;font-variant-east-asian:normal;fill:#002a6c;fill-opacity:1;stroke-width:3.68891">OFFICIALLY THE UNOFFICIAL TMS</tspan></text>
  </g>
</svg>
