<?xml version="1.0" encoding="UTF-8" standalone="no"?>
<!-- Created with Inkscape (http://www.inkscape.org/) -->

<svg width="400mm" height="400mm" viewBox="0 0 400 400" version="1.1" id="svg1" xml:space="preserve"
  xmlns="http://www.w3.org/2000/svg" xmlns:svg="http://www.w3.org/2000/svg">
  <defs id="defs1" />
  <g id="layer1">
    <g id="g133" transform="matrix(2.5126602,0,0,2.0815872,-1005.0641,-624.51548)"
      style="stroke-width:1.00022;stroke-dasharray:none">
      <!-- The T -->
      <path style="fill:#ffffff;fill-opacity:1;stroke:none;stroke-width:1.00022;stroke-dasharray:none;stroke-opacity:1"
        d="m 405.357,337.18837 -2.143,-0.86481 -1.607,-2.29431 -1.607,-2.29431 v -12.82295 -12.82295 l 2.38827,-2.38827 2.38827,-2.38827 3.44776,-0.64681 3.44775,-0.6468 13.64411,0.33053 13.6441,0.33053 2.76987,2.77455 2.76987,2.77455 v 13.0584 13.0584 l -3.26578,2.91705 -3.26577,2.91705 -15.23423,-0.0634 -15.23422,-0.0634 -2.143,-0.86481 z"
        id="path7010" />
      <path style="fill:#ffffff;fill-opacity:1;stroke:none;stroke-width:1.00022;stroke-dasharray:none;stroke-opacity:1"
        d="M 462.92308,489.25687 460,486.3338 v -89.02987 -89.02987 l 1.13856,-2.49887 1.13855,-2.49886 3.32913,-1.57977 3.32912,-1.57977 42.01045,0.28158 42.01044,0.28158 2.77187,2.77044 2.77188,2.77045 0.34691,10.6844 0.34692,10.6844 -1.13531,3.78933 -1.13531,3.78933 -2.91195,1.50583 -2.91194,1.50582 H 524.54966 498 l -0.0318,74.25 -0.0318,74.25 -1.21819,1.58666 -1.2182,1.58665 -2.18426,1.16335 -2.18426,1.16334 h -12.64266 -12.64267 l -2.92307,-2.92308 z"
        id="path6998" />
    </g>
  </g>
</svg>