<?xml version="1.0" encoding="UTF-8" standalone="no"?>
<!-- Created with Inkscape (http://www.inkscape.org/) -->

<svg
   width="60mm"
   height="60mm"
   viewBox="0 0 60 60"
   version="1.1"
   id="svg1"
   xmlns="http://www.w3.org/2000/svg"
   xmlns:svg="http://www.w3.org/2000/svg">
  <defs
     id="defs1" />
  <g
     id="layer2"
     transform="matrix(4.3182096,0,0,1,-134.19845,-32.880466)">
    <path
       style="fill:#009485;fill-opacity:1;stroke-width:0.558403"
       id="rect7"
       width="22.840517"
       height="60"
       x="31.077337"
       y="32.880466"
       transform="matrix(0.60833332,0,0,1,12.171956,-4.6118164e-7)"
       d="m 32.600038,32.880466 h 19.795115 c 0.843577,0 1.522701,1.784 1.522701,4 v 52 c 0,2.216 -0.679124,4 -1.522701,4 H 32.600038 c -0.843576,0 -1.522701,-1.784 -1.522701,-4 v -52 c 0,-2.216 0.679125,-4 1.522701,-4 z"
       ry="4"
       rx="1.5227011" />
  </g>
  <g
     id="layer1">
    <path
       id="rect3"
       style="fill:#ffffff;fill-opacity:1;stroke-width:0.264583"
       d="M 25,15 H 35 V 52.568109 A 2.4318912,2.4318912 0 0 1 32.568109,55 h -5 A 2.5681087,2.5681087 0 0 1 25,52.431891 Z M 27.46967,5 H 52.568109 A 2.4318912,2.4318912 0 0 1 55,7.4318912 V 12.53033 A 2.4696699,2.4696699 0 0 1 52.53033,15 H 25 V 7.4696699 A 2.4696699,2.4696699 0 0 1 27.46967,5 Z M 7.7348346,5 H 17.265165 C 18.780264,5 20,6.2197364 20,7.7348349 V 12.265165 C 20,13.780264 18.780264,15 17.265165,15 H 7.7348346 C 6.2197364,15 5,13.780264 5,12.265165 V 7.7348349 C 5,6.2197364 6.2197364,5 7.7348346,5 Z" />
  </g>
</svg>
